<svg xmlns="http://www.w3.org/2000/svg" width="1920" height="1080" viewBox="0 0 508 285.75"><path fill="#0b0c10" paint-order="markers fill stroke" d="M-.378 0h509.134v286.884H-.378z"/><g stroke="#0ff" stroke-linejoin="round" paint-order="markers fill stroke"><path fill="#0aadf0" d="M235.479 0h.756v49.893h-.756zM235.479 49.893h.756v49.893h-.756z"/><path fill="#0aadf0" d="M235.479 98.047h.756v49.893h-.756z"/><path fill="#0aadf0" d="M235.479 146.73h.756v49.893h-.756z"/><path fill="#ff0" d="M235.479 196.471h.756v49.893h-.756z"/><path fill="#0aadf0" d="M235.479 234.571h.756v49.893h-.756z"/></g><ellipse cx="235.813" cy="54.484" rx="3.78" ry="3.969" fill="#f60" stroke="#f60" stroke-linejoin="round" paint-order="markers fill stroke"/><g fill="#fff" stroke="#fff" paint-order="markers fill stroke"><path d="M50.649 96.384l-9.663.261-9.661.312 4.605-8.499 4.56-8.522 5.058 8.237z" transform="matrix(.01465 -.5021 .57323 .01025 199.618 74.01)" stroke-width=".493"/><path stroke-width="6.821" stroke-linejoin="round" d="M256.646 35.53h100.115v33.338H256.646z"/></g><ellipse cx="235.813" cy="176.721" rx="3.78" ry="3.969" fill="#f60" stroke="#f60" stroke-linejoin="round" paint-order="markers fill stroke"/><ellipse cx="235.813" cy="116.396" rx="3.78" ry="3.969" fill="#f60" stroke="#f60" stroke-linejoin="round" paint-order="markers fill stroke"/><ellipse cx="235.813" cy="237.574" rx="3.78" ry="3.969" fill="#f60" stroke="#f60" stroke-linejoin="round" paint-order="markers fill stroke"/><g fill="#fff" stroke="#fff" paint-order="markers fill stroke"><path d="M50.649 96.384l-9.663.261-9.661.312 4.605-8.499 4.56-8.522 5.058 8.237z" transform="matrix(-.02433 .50172 -.57293 -.0213 272.844 98.048)" stroke-width=".493"/><path stroke-width="6.821" stroke-linejoin="round" d="M115.36 97.971h100.115v33.338H115.36z"/></g><g fill="#fff" stroke="#fff" paint-order="markers fill stroke"><path d="M50.649 96.384l-9.663.261-9.661.312 4.605-8.499 4.56-8.522 5.058 8.237z" transform="matrix(.01465 -.5021 .57323 .01025 199.618 196.249)" stroke-width=".493"/><path stroke-width="6.821" stroke-linejoin="round" d="M256.646 159.883h100.115v33.338H256.646z"/></g><g fill="#fff" stroke="#fff" paint-order="markers fill stroke"><path d="M50.649 96.384l-9.663.261-9.661.312 4.605-8.499 4.56-8.522 5.058 8.237z" transform="matrix(-.02433 .50172 -.57293 -.0213 272.844 219.227)" stroke-width=".493"/><path stroke-width="6.821" stroke-linejoin="round" d="M115.36 221.266h100.115v33.338H115.36z"/></g><text style="line-height:1.25;-inkscape-font-specification:'Comic Sans MS'" x="211.391" y="54.621" transform="scale(.91023 1.09862)" font-weight="400" font-size="15.088" font-family="Comic Sans MS" fill="#a9eb67" stroke-width=".265"><tspan x="211.391" y="54.621" style="-inkscape-font-specification:'Comic Sans MS'">1910</tspan></text><text style="line-height:1.25;-inkscape-font-specification:'Comic Sans MS'" x="211.391" y="165.885" transform="scale(.91023 1.09862)" font-weight="400" font-size="15.088" font-family="Comic Sans MS" fill="#a9eb67" stroke-width=".265"><tspan x="211.391" y="165.885" style="-inkscape-font-specification:'Comic Sans MS'">1926</tspan></text><text style="line-height:1.25;-inkscape-font-specification:'Comic Sans MS'" x="274.178" y="110.494" transform="scale(.91023 1.09862)" font-weight="400" font-size="15.088" font-family="Comic Sans MS" fill="#ff0" stroke-width=".265"><tspan x="274.178" y="110.494" style="-inkscape-font-specification:'Comic Sans MS'">1920</tspan></text><text style="line-height:1.25;-inkscape-font-specification:'Comic Sans MS'" x="274.178" y="110.494" transform="scale(.91023 1.09862)" font-weight="400" font-size="15.088" font-family="Comic Sans MS" fill="#a9eb67" stroke-width=".265"><tspan x="274.178" y="110.494" style="-inkscape-font-specification:'Comic Sans MS'">1920</tspan></text><text style="line-height:1.25;-inkscape-font-specification:'Comic Sans MS'" x="274.178" y="221.276" transform="scale(.91023 1.09862)" font-weight="400" font-size="15.088" font-family="Comic Sans MS" fill="#a9eb67" stroke-width=".265"><tspan x="274.178" y="221.276" style="-inkscape-font-specification:'Comic Sans MS'">1920</tspan></text><text style="line-height:1.25" x="119.44" y="110.369" font-weight="400" font-size="4.233" font-family="sans-serif" stroke-width=".265"></text><text style="line-height:1.25" x="118.307" y="110.369" font-weight="400" font-size="4.233" font-family="sans-serif" stroke-width=".265"></text><text style="line-height:1.25" x="119.818" y="109.235" font-size="6.615" font-family="sans-serif" stroke-width=".265"></text><text style="line-height:1.25" x="119.063" y="105.833" font-size="5.292" font-family="sans-serif" stroke-width=".265"><tspan x="119.063" y="105.833">Recievid Nobel piece price,and can</tspan></text><text style="line-height:1.25" x="119.063" y="125.942" font-size="5.292" font-family="sans-serif" stroke-width=".265"><tspan x="119.063" y="125.942">Recievid Nobel piece price,and can</tspan></text><text style="line-height:1.25" x="119.063" y="115.887" font-size="5.292" font-family="sans-serif" stroke-width=".265"><tspan x="119.063" y="115.887">Recievid Nobel piece price,and can</tspan></text><text style="line-height:1.25" x="125.942" y="246.061" font-size="5.292" font-family="sans-serif" stroke-width=".265"><tspan x="125.942" y="246.061">Isn&apos;t it kinda sucks? I know u </tspan></text><text style="line-height:1.25" x="259.819" y="43.392" font-size="5.292" font-family="sans-serif" stroke-width=".265"><tspan x="259.819" y="43.392">Have a nice evening everybody.bye</tspan></text><text style="line-height:1.25" x="259.819" y="64.558" font-size="5.292" font-family="sans-serif" stroke-width=".265"><tspan x="259.819" y="64.558">Have a nice evening everybody.bye</tspan></text><text style="line-height:1.25" x="259.819" y="53.975" font-size="5.292" font-family="sans-serif" stroke-width=".265"><tspan x="259.819" y="53.975">Have a nice evening everybody.bye</tspan></text><text style="line-height:1.25" x="267.757" y="171.979" font-size="5.292" font-family="sans-serif" stroke-width=".265"><tspan x="267.757" y="171.979">Make it simple Stupid.Really</tspan></text><text style="line-height:1.25" x="267.228" y="184.678" font-size="5.292" font-family="sans-serif" stroke-width=".265"><tspan x="267.228" y="184.678">Make it simple Stupid.Really</tspan></text><text style="line-height:1.25" x="125.942" y="234.419" font-size="5.292" font-family="sans-serif" stroke-width=".265"><tspan x="125.942" y="234.419">Isn&apos;t it kinda sucks? I know u </tspan></text></svg>